 <svg xmlns="http://www.w3.org/2000/svg" width="62.50546587128px" height="69px"  viewBox="0 0 175.74 194" class="" fill="rgba(228, 18, 7, 1)"><path d="M161.17,105.69c-5.15-3-15.06-6.56-34-8.69,19-2.14,28.89-5.71,34-8.7a29.12,29.12,0,1,0-29.12-50.44c-5.17,3-13.2,9.76-24.53,25.12C115.15,45.47,117,35.12,117,29.17a29.12,29.12,0,1,0-58.24,0c0,5.95,1.84,16.3,9.48,33.81C56.89,47.62,48.85,40.82,43.69,37.86A29.12,29.12,0,1,0,14.57,88.3c5.16,3,15.08,6.56,34.05,8.7-19,2.13-28.89,5.7-34,8.69a29.12,29.12,0,1,0,29.12,50.44c5.17-3,13.21-9.76,24.54-25.11-7.64,17.5-9.51,27.86-9.48,33.8a29.12,29.12,0,1,0,58.24,0c0-5.95-1.84-16.3-9.48-33.81,11.34,15.36,19.37,22.16,24.54,25.12a29.12,29.12,0,1,0,29.12-50.44ZM133.94,41.16c10.83-6.19,26.75-4.43,34.64,9.24,7.79,13.5,1.22,28.47-9.33,34.61-5.26,3.07-19.18,8.36-53.49,9.74a19.72,19.72,0,0,0-1.4-5.06l-1.9-3.3a20,20,0,0,0-3.7-3.75C117.12,53.6,128.65,44.19,133.94,41.16Zm-38,67.58a14.22,14.22,0,1,1,2-21.82A14.21,14.21,0,0,1,95.89,108.74ZM62.55,29.18C62.61,16.71,72.09,3.8,87.87,3.8c15.57,0,25.27,13.18,25.31,25.38,0,6.09-2.34,20.78-18.31,51.2a18,18,0,0,0-5.09-1.31H86a18.05,18.05,0,0,0-5.1,1.31C64.9,50,62.53,35.27,62.55,29.18ZM16.48,85C5.71,78.73-.73,64.07,7.16,50.4c7.53-13,23.57-15.57,34.64-9.24,5.29,3,16.82,12.44,35.18,41.48a19.72,19.72,0,0,0-3.69,3.75l-1.9,3.3A19.08,19.08,0,0,0,70,94.75C35.69,93.37,21.76,88.08,16.48,85ZM41.8,152.83C31.21,158.89,15,157.09,7.16,143.6S5.94,115.12,16.48,109c5.28-3.07,19.21-8.36,53.5-9.73,0,.24.09.48.13.72a17.69,17.69,0,0,0,1.28,4.36l1.9,3.29A19.85,19.85,0,0,0,77,111.36C58.63,140.39,47.09,149.8,41.8,152.83Zm71.38,12c0,12.2-9.73,25.38-25.31,25.39-15.78,0-25.26-12.92-25.32-25.39,0-6.09,2.35-20.77,18.32-51.19l.85.31a18.29,18.29,0,0,0,4.25,1h3.81a17.82,17.82,0,0,0,4.32-1c.26-.09.52-.17.77-.27C114.76,151.51,113.18,164.9,113.18,164.81Zm55.4-21.21c-7.8,13.48-24.05,15.29-34.64,9.23-5.29-3-16.82-12.44-35.18-41.47a20.05,20.05,0,0,0,3.69-3.74l1.9-3.29a18.09,18.09,0,0,0,1.3-4.45c0-.21.08-.42.11-.63,34.31,1.37,48.23,6.66,53.49,9.73C169.8,115.12,176.37,130.1,168.58,143.6Z"></path></svg>